<?xml version="1.0" standalone="no"?>
<!DOCTYPE svg PUBLIC "-//W3C//DTD SVG 20010904//EN"
 "http://www.w3.org/TR/2001/REC-SVG-20010904/DTD/svg10.dtd">
<svg version="1.0" xmlns="http://www.w3.org/2000/svg"
 width="1188.000000pt" height="840.000000pt" viewBox="0 0 1188.000000 840.000000"
 preserveAspectRatio="xMidYMid meet">

<g transform="translate(0.00000 0,840.000000) scale(0.100000,-0.100000)"
fill="#000000" stroke="none">
<path d="M1896 6251 c5 -4 202 -143 438 -307 l429 -299 -528 -5 -528 -5 -298
-1105 c-164 -608 -301 -1117 -304 -1133 l-7 -27 1338 2 1337 3 77 285 c42 157
80 295 84 308 l7 22 -715 0 c-394 0 -716 3 -716 7 0 4 30 121 67 260 l67 253
616 0 616 0 78 293 c43 160 81 300 83 309 5 17 -31 18 -609 20 l-615 3 59 215
c32 118 63 232 68 252 l11 38 717 2 717 3 82 305 c45 168 82 306 83 308 0 1
-599 2 -1332 2 -741 0 -1328 -4 -1322 -9z"/>
<path d="M5376 6245 c-377 -64 -640 -303 -769 -700 -33 -99 -350 -1272 -383
-1415 -33 -142 -41 -303 -20 -394 41 -172 154 -282 341 -331 122 -32 255 -36
1204 -33 l944 3 77 285 c42 157 80 295 84 307 l7 22 -573 3 c-568 3 -573 3
-629 26 -118 47 -166 152 -139 302 15 86 242 929 270 1002 45 122 144 231 246
274 110 47 110 47 705 51 l566 5 78 291 c43 161 80 298 82 305 7 18 -1978 16
-2091 -3z"/>
<path d="M4599 3033 l-276 -3 4 -23 c2 -12 -41 -150 -97 -307 -55 -156 -98
-290 -96 -297 8 -20 266 -19 266 1 0 8 -5 16 -10 18 -6 2 7 53 32 123 l43 120
106 3 106 3 12 38 c6 21 11 41 11 45 0 3 -45 6 -101 6 -77 0 -100 3 -97 13 3
6 13 36 23 65 l19 52 131 0 c89 0 136 -4 148 -12 15 -12 9 -33 -64 -238 -44
-123 -77 -230 -75 -237 4 -10 64 -13 280 -13 l274 0 13 38 c6 20 20 58 30 84
l18 47 -34 -15 c-37 -15 -296 -21 -294 -6 0 4 10 34 22 67 l22 60 106 3 106 3
12 38 c6 21 11 41 11 45 0 3 -45 6 -101 6 -77 0 -100 3 -96 13 2 6 13 36 23
65 l19 52 128 0 c71 0 137 -4 147 -10 14 -8 18 -21 18 -63 -1 -87 39 -139 156
-207 103 -59 88 -80 -58 -80 -86 0 -103 3 -121 20 l-22 20 -21 -74 c-12 -41
-19 -82 -16 -91 6 -14 31 -16 239 -13 l232 3 42 28 c72 47 109 157 80 234 -16
43 -56 80 -147 135 -122 73 -115 82 69 86 l145 3 12 44 12 45 71 0 c63 0 70
-2 65 -17 -63 -162 -187 -536 -183 -548 5 -12 28 -15 133 -15 l126 0 -6 24
c-4 15 25 111 88 287 l93 264 78 3 c44 2 82 -2 90 -8 10 -8 14 -5 19 14 3 13
9 31 12 40 6 16 -36 17 -522 14 -526 -3 -529 -3 -567 -25 l-37 -22 6 24 6 25
-265 0 c-145 0 -277 1 -293 3 -16 2 -153 2 -305 0z"/>
<path d="M7228 3033 c-37 -3 -48 -8 -48 -21 0 -14 -152 -125 -191 -140 -5 -2
-9 27 -9 65 0 40 -5 74 -12 81 -8 8 -53 12 -137 12 -97 0 -122 -3 -113 -12 8
-8 12 -59 12 -168 l-1 -155 -215 -145 c-119 -79 -218 -148 -220 -152 -3 -4 51
-8 119 -8 120 0 145 6 145 34 0 9 684 467 690 462 2 -2 -33 -106 -77 -230 -45
-125 -81 -236 -81 -246 0 -19 8 -20 224 -20 l224 0 23 68 c12 37 24 74 27 82
4 12 2 13 -9 3 -8 -9 -46 -13 -110 -13 l-96 0 84 236 c46 130 82 241 80 248
-3 8 -38 15 -98 19 -91 7 -120 7 -211 0z"/>
<path d="M3477 3008 c2 -13 -40 -147 -97 -306 -56 -156 -99 -290 -96 -298 4
-11 45 -14 225 -14 l220 0 20 55 c11 30 23 67 27 82 5 23 4 26 -7 16 -13 -13
-199 -19 -199 -7 0 3 37 108 81 234 45 126 79 236 76 244 -5 13 -27 16 -130
16 -123 0 -124 0 -120 -22z"/>
<path d="M3987 3007 c3 -14 -33 -131 -91 -293 -52 -148 -97 -280 -98 -294 l-3
-25 124 -3 c92 -2 126 1 132 10 4 7 4 15 -1 18 -5 3 36 131 91 285 54 154 98
289 96 300 -2 19 -11 20 -128 23 l-126 3 4 -24z"/>
<path d="M7797 3011 c3 -11 -41 -148 -97 -306 -56 -157 -99 -292 -96 -300 4
-13 49 -15 278 -15 l273 0 28 78 c15 42 27 80 27 85 0 4 -13 1 -30 -8 -22 -11
-62 -15 -160 -15 -71 0 -130 3 -130 8 0 4 10 35 22 70 l23 62 102 0 103 0 15
36 c8 20 15 40 15 45 0 5 -45 9 -101 9 -77 0 -100 3 -97 13 3 6 13 36 22 65
l18 52 132 0 c103 0 136 -3 154 -16 21 -14 23 -14 31 8 4 13 18 49 30 81 11
32 21 60 21 62 0 3 -132 5 -294 5 -286 0 -294 -1 -289 -19z"/>
</g>
</svg>
